<svg width="280" height="282" viewBox="0 0 280 282" fill="none" xmlns="http://www.w3.org/2000/svg">
<g clip-path="url(#clip0_4_21)">
<path d="M140 282C217.32 282 280 218.872 280 141C280 63.1279 217.32 0 140 0C62.6801 0 0 63.1279 0 141C0 218.872 62.6801 282 140 282Z" fill="#263033"/>
<path d="M72.968 118.158C73.024 118.384 73.024 118.609 72.968 118.835C72.912 119.06 72.744 119.286 72.576 119.455C72.296 119.794 72.072 120.076 71.904 120.188C71.736 120.358 71.568 120.47 71.4 120.583C71.232 120.752 71.064 120.865 70.896 121.034C70.728 121.204 70.504 121.429 70.224 121.768L65.576 127.295C65.24 127.69 65.016 128.028 64.848 128.423C64.68 128.761 64.512 129.269 64.456 129.946C64.344 130.848 64.344 131.638 64.456 132.314C64.512 132.991 64.792 133.724 65.296 134.514L65.072 138.857C65.128 139.477 65.072 139.872 65.016 140.154C64.96 140.436 64.904 141 64.792 141.846C64.68 142.41 64.512 142.918 64.12 143.369C63.896 143.651 63.728 143.989 63.672 144.328C63.616 144.666 63.56 144.948 63.504 145.286C63.392 145.794 63.28 146.189 63.224 146.64C63.168 147.035 62.888 147.43 62.44 147.824C62.272 147.994 62.104 148.219 61.88 148.445C61.656 148.727 61.488 148.952 61.32 149.065C60.928 149.404 60.592 149.798 60.2 150.137C59.864 150.475 59.584 150.926 59.304 151.378C59.024 151.998 58.52 152.449 57.904 152.731C57.288 153.07 56.616 153.408 56 153.859C55.608 154.085 55.328 154.254 55.104 154.31C54.432 154.536 53.648 154.762 52.92 154.931C52.136 155.1 51.408 155.1 50.792 154.931C50.12 154.762 49.56 154.536 49 154.254C48.496 153.972 47.88 153.577 47.32 153.07C47.264 153.013 47.152 152.957 46.984 152.788C46.592 152.393 46.312 152.054 46.144 151.772C45.976 151.49 45.864 151.039 45.752 150.532C45.528 149.46 45.64 148.558 46.2 147.824C46.76 147.091 47.32 146.189 47.88 145.174C48.832 143.369 49.896 141.902 51.016 140.774C52.136 139.646 53.312 138.406 54.488 137.108C54.712 136.883 54.88 136.657 55.048 136.375C55.216 136.15 55.384 135.868 55.608 135.642C55.664 135.586 55.832 135.473 56 135.416C56.168 135.36 56.28 135.247 56.392 135.191C56.448 135.078 56.504 134.965 56.504 134.852C56.504 134.74 56.504 134.627 56.616 134.514C56.728 134.288 56.896 134.006 57.12 133.668C57.344 133.273 57.4 132.991 57.232 132.822C56.896 132.484 56.56 132.089 56.168 131.581C55.776 131.074 55.328 130.51 54.88 130.002C54.376 129.438 53.872 128.93 53.312 128.423C52.752 127.915 52.08 127.52 51.408 127.238C50.792 127.013 50.176 126.787 49.56 126.562C48.944 126.336 48.328 126.11 47.768 125.885C46.816 125.49 45.864 125.095 44.912 124.7C43.96 124.306 43.064 123.854 42.336 123.29C41.608 122.726 40.992 122.162 40.432 121.486C39.872 120.809 39.48 120.076 39.256 119.117C38.808 117.143 38.696 115.169 39.032 113.138C39.2 112.123 39.592 111.108 40.208 110.093C40.824 109.078 41.44 108.175 42.112 107.386C43.344 105.919 44.744 104.509 46.424 103.043C47.152 102.479 47.824 102.028 48.384 101.633C48.944 101.294 49.56 100.843 50.344 100.223C51.24 99.546 52.192 99.264 53.312 99.3768C54.432 99.4896 55.496 99.7152 56.504 100.11C58.184 100.73 59.192 101.746 59.528 103.268C59.864 104.791 59.92 106.314 59.584 107.837C59.304 109.303 58.744 110.77 57.96 112.18C57.568 112.913 57.12 113.646 56.784 114.379C56.392 115.112 56 115.789 55.496 116.522C55.104 117.086 54.768 117.425 54.544 117.481C54.32 117.538 53.816 117.538 53.088 117.368C52.64 117.312 52.304 117.199 52.08 117.086C51.576 116.974 51.352 116.861 51.296 116.748C51.24 116.635 51.408 116.41 51.8 116.015C52.584 115.225 53.256 114.436 53.704 113.533C54.152 112.631 54.712 111.728 55.216 110.882C55.608 110.318 56 109.754 56.28 109.19C56.56 108.626 56.896 108.062 57.232 107.442C57.848 106.37 57.904 105.242 57.4 104.171C57.12 103.663 56.84 103.156 56.616 102.592C56.336 102.084 55.888 101.689 55.104 101.407C54.432 101.182 53.648 101.125 52.808 101.294C51.968 101.464 51.184 101.746 50.568 102.253C50.232 102.535 49.896 102.817 49.504 103.099C49.168 103.381 48.832 103.663 48.44 103.945C47.488 104.622 46.704 105.412 45.976 106.201C45.248 107.047 44.688 108.006 44.352 109.078C44.128 109.642 43.904 110.149 43.512 110.657C43.176 111.108 42.896 111.728 42.784 112.462C42.728 112.744 42.672 113.026 42.672 113.251C42.672 113.477 42.672 113.759 42.672 114.097C42.672 114.323 42.784 114.605 42.896 115C43.064 115.507 43.232 115.902 43.4 116.24C43.568 116.579 43.848 116.974 44.184 117.368C44.296 117.481 44.408 117.65 44.576 117.82C45.248 118.553 45.808 119.173 46.312 119.794C46.816 120.358 47.488 120.809 48.384 121.147C49.952 121.711 51.52 122.275 53.088 122.783C54.656 123.29 56.224 123.854 57.792 124.418C58.576 124.7 59.192 125.095 59.64 125.603C60.032 126.11 60.592 126.562 61.32 126.9C61.544 127.013 61.768 127.238 61.936 127.633C62.104 128.028 62.272 128.141 62.496 127.972C62.552 127.915 62.72 127.746 62.888 127.577C63.056 127.408 63.28 127.238 63.448 127.013C63.616 126.787 63.84 126.674 64.008 126.562C64.176 126.449 64.344 126.392 64.456 126.392C64.512 126.505 64.624 126.449 64.792 126.167C64.848 126.11 64.96 126.054 65.072 125.998C64.624 125.321 64.624 124.813 65.016 124.475C65.408 124.136 65.856 123.854 66.36 123.572C66.528 122.896 66.752 122.444 67.032 122.162C67.312 121.88 67.816 121.711 68.544 121.598C68.768 121.598 68.936 121.486 69.104 121.373C69.272 121.26 69.44 121.091 69.664 120.978C69.72 120.865 69.72 120.752 69.664 120.64C69.384 120.358 69.272 120.132 69.272 120.019C69.272 119.906 69.384 119.794 69.608 119.568C69.944 119.286 70.224 119.117 70.336 119.004C70.448 118.891 70.56 118.835 70.672 118.722C70.728 118.609 70.84 118.44 70.952 118.327C71.064 118.214 71.232 117.989 71.4 117.707C71.456 117.594 71.624 117.481 71.848 117.368C72.072 117.312 72.24 117.256 72.352 117.256C72.576 117.312 72.856 117.481 73.024 117.594C72.744 117.82 72.912 117.989 72.968 118.158ZM58.072 136.093C57.848 135.416 57.4 135.36 56.784 136.037C56.392 136.432 56.056 136.826 55.664 137.221C55.272 137.616 54.936 137.954 54.544 138.406C54.152 138.8 53.816 139.195 53.48 139.646C53.144 140.098 52.808 140.492 52.472 140.831C52.08 141.395 51.744 141.902 51.408 142.41C51.072 142.861 50.736 143.482 50.344 144.215C50.064 144.722 49.896 145.174 49.784 145.512C49.672 145.85 49.504 146.245 49.28 146.753C49.112 147.091 48.944 147.317 48.72 147.542C48.496 147.712 48.384 147.994 48.44 148.388C48.44 148.614 48.496 148.783 48.608 148.896C48.72 149.009 48.72 149.122 48.72 149.291C48.776 149.629 48.72 149.855 48.608 150.137C48.496 150.362 48.44 150.644 48.496 150.87C48.608 151.265 48.832 151.603 49.056 151.829C49.28 152.054 49.56 152.28 49.952 152.506C50.568 152.9 51.128 153.182 51.632 153.408C52.136 153.634 52.808 153.464 53.76 153.013C53.872 152.9 54.096 152.788 54.376 152.562C54.656 152.336 54.936 152.111 55.104 151.885C55.888 150.87 56.56 149.911 57.176 149.122C57.792 148.332 58.24 147.317 58.52 146.189C58.8 145.117 58.968 144.046 59.136 142.918C59.304 141.846 59.304 140.774 59.136 139.703C59.08 139.139 58.912 138.518 58.744 137.954C58.52 137.221 58.296 136.657 58.072 136.093ZM56.672 152.562C56.616 152.506 56.56 152.506 56.56 152.449C56.336 152.506 56.224 152.562 56.112 152.675C56 152.957 55.832 153.126 55.72 153.295L55.832 153.352C55.832 153.408 55.888 153.408 55.944 153.408C56.056 153.239 56.168 153.126 56.28 153.013C56.448 152.844 56.56 152.731 56.672 152.562ZM58.296 150.588C58.352 150.588 58.352 150.532 58.296 150.532C58.24 150.475 58.184 150.475 58.128 150.532C57.904 150.701 57.736 150.926 57.568 151.152C57.4 151.378 57.232 151.603 57.064 151.829C57.064 151.885 57.12 151.885 57.232 151.829C57.288 151.829 57.288 151.829 57.344 151.885C57.68 151.49 58.016 151.096 58.296 150.588ZM60.704 146.471C60.368 146.414 60.2 146.245 60.256 146.02C60.312 145.794 60.256 145.625 60.032 145.512C59.92 146.076 59.864 146.64 59.696 147.204C59.584 147.768 59.304 148.276 58.912 148.783C58.8 148.952 58.688 149.178 58.576 149.573C58.52 149.629 58.52 149.742 58.576 149.798C58.688 149.742 58.744 149.742 58.8 149.629C58.856 149.629 58.912 149.516 58.968 149.404L60.592 146.866C60.648 146.809 60.704 146.696 60.704 146.584C60.816 146.527 60.76 146.471 60.704 146.471ZM56.392 134.909L56.28 135.134C56.336 135.078 56.392 135.022 56.504 134.965L56.392 134.909ZM65.016 124.982V125.039H65.072L65.016 124.982ZM66.808 123.065C66.752 123.121 66.64 123.234 66.528 123.234C66.416 123.29 66.36 123.347 66.248 123.403C66.136 123.46 66.08 123.516 65.968 123.572L65.072 124.926C65.352 124.7 65.632 124.531 65.912 124.306C66.192 124.08 66.472 123.911 66.752 123.685C66.808 123.629 66.864 123.516 66.808 123.347C66.808 123.347 66.808 123.178 66.808 123.065Z" fill="white"/>
<path d="M94.304 91.4244C94.304 91.4808 94.304 91.5936 94.192 91.8192C94.024 91.8756 93.912 91.932 93.744 91.9884C93.576 92.0448 93.464 92.1012 93.296 92.1576C92.68 92.3268 92.12 92.5524 91.504 92.7216C90.888 92.8908 90.272 93.06 89.712 93.2856C89.152 93.5112 88.592 93.906 88.088 94.3008C87.584 94.752 87.024 95.0904 86.352 95.3724C86.128 95.4288 85.96 95.5416 85.792 95.6544C85.624 95.7672 85.456 95.88 85.288 95.9928C84.896 96.162 84.56 96.3876 84.224 96.5568C83.888 96.726 83.552 96.7824 83.104 96.726C82.992 96.6696 82.88 96.6696 82.824 96.8388C82.488 97.1772 82.152 97.3464 81.816 97.4028C81.48 97.4592 81.144 97.572 80.752 97.7412C80.304 97.9104 79.856 98.0232 79.464 98.1924C79.072 98.3616 78.624 98.5308 78.176 98.7564C78.064 98.8128 78.008 98.8692 78.008 98.9256C78.008 99.0384 77.952 99.0948 77.896 99.1512C77.952 99.264 78.064 99.264 78.12 99.264C78.176 99.264 78.288 99.3204 78.4 99.3768L78.68 99.264L81.312 98.136C82.432 97.6848 83.496 97.1208 84.504 96.444C85.512 95.8236 86.576 95.2596 87.696 94.752C88.144 94.5828 88.536 94.3572 88.984 94.188C89.432 94.0188 89.88 93.8496 90.328 93.6804C90.608 93.5676 90.776 93.3984 90.776 93.2292C90.832 93.1728 90.888 93.1164 90.944 93.1164C91 93.1164 91.056 93.1164 91.056 93.1728C91.392 93.5676 91.672 93.5112 91.84 93.0036C92.064 92.778 92.232 92.6088 92.344 92.5524C92.512 92.496 92.68 92.5524 92.904 92.7216L93.072 92.6652L93.296 92.6088C93.352 92.2704 93.52 92.1576 93.744 92.2704C94.024 92.3832 94.192 92.3268 94.248 92.0448C94.192 92.2704 94.248 92.3832 94.248 92.3832C93.968 92.7216 93.688 93.0036 93.408 93.2292C93.128 93.3984 92.792 93.5676 92.4 93.7932C91.504 94.188 90.608 94.6956 89.824 95.2596C89.04 95.8236 88.2 96.3312 87.304 96.726C87.192 96.7824 87.136 96.7824 87.136 96.8388C87.136 96.8952 87.08 96.8952 87.024 96.8952C87.08 96.9516 87.136 96.9516 87.192 96.8952C87.248 96.8952 87.304 96.8952 87.36 96.8952C87.472 96.8388 87.528 96.8388 87.64 96.8388C87.696 96.8388 87.808 96.8388 87.92 96.7824C87.752 96.9516 87.584 97.0644 87.36 97.1208C87.136 97.1772 86.968 97.29 86.8 97.3464C86.632 97.4592 86.408 97.4028 86.24 97.1772C86.184 97.1208 86.016 97.1772 85.848 97.2336C85.456 97.3464 85.008 97.5156 84.616 97.6848C84.168 97.854 83.776 98.0232 83.384 98.1924C83.328 98.1924 83.328 98.2488 83.272 98.2488C83.272 98.3052 83.216 98.3052 83.16 98.3052C83.216 98.3052 83.272 98.3052 83.328 98.3052L84.504 97.9104C84.56 97.9104 84.672 97.9104 84.784 97.9668C84.728 97.9668 84.728 98.0232 84.672 98.0232C84.672 98.0796 84.616 98.0796 84.56 98.0796C84.056 98.3616 83.496 98.5872 82.936 98.8128C82.376 99.0384 81.816 99.264 81.312 99.546C80.64 99.8844 79.968 100.223 79.296 100.505C78.624 100.843 77.896 101.125 77.28 101.464C76.888 101.689 76.552 101.915 76.216 102.084C75.88 102.253 75.432 102.422 74.984 102.592C74.032 102.986 73.36 103.381 73.08 103.889C72.8 104.396 72.744 105.13 72.856 106.201C72.912 106.878 72.968 107.611 72.968 108.232C72.968 108.908 72.968 109.585 72.968 110.318C73.024 110.77 73.024 111.221 73.024 111.728C73.024 112.236 73.08 112.687 73.08 113.138C73.136 114.21 73.248 115.282 73.304 116.24C73.36 117.256 73.528 118.214 73.752 119.23C74.032 120.583 74.2 121.937 74.368 123.29C74.536 124.644 74.648 126.054 74.872 127.408C74.984 128.084 75.096 128.761 75.152 129.494C75.264 130.171 75.432 130.848 75.712 131.581C75.768 131.807 75.824 132.089 75.768 132.314C75.712 132.54 75.712 132.822 75.768 133.048C75.824 133.33 75.88 133.555 75.936 133.837C75.992 134.063 76.048 134.345 76.104 134.627C76.16 134.796 76.216 134.852 76.328 134.852C76.44 134.852 76.552 134.796 76.664 134.57C76.888 134.119 77.28 133.442 77.784 132.653C78.288 131.863 78.68 131.186 78.848 130.679C79.016 130.228 79.296 129.551 79.688 128.648C80.024 127.746 80.416 126.731 80.864 125.716C81.256 124.7 81.648 123.742 82.04 122.783C82.376 121.88 82.656 121.147 82.88 120.752C82.992 120.414 83.104 120.076 83.16 119.906C83.328 119.568 83.496 119.399 83.72 119.286C83.944 119.23 84.112 119.286 84.112 119.512C84.112 119.737 84.112 120.019 84.056 120.301C83.776 121.147 83.384 122.388 82.936 123.911C82.432 125.434 81.928 127.013 81.368 128.705C80.808 130.397 80.248 131.976 79.688 133.555C79.128 135.078 78.624 136.319 78.232 137.165C78.008 137.56 77.896 137.842 77.84 138.011C77.56 138.688 77.112 139.195 76.44 139.534C75.768 139.872 75.096 139.872 74.48 139.534C73.752 139.139 73.192 138.688 72.8 138.067C72.408 137.447 72.128 136.77 71.96 136.037C71.512 134.345 71.176 132.653 70.84 131.017C70.56 129.325 70.28 127.633 70.056 125.941C70 125.039 69.832 124.136 69.72 123.178C69.552 122.275 69.44 121.373 69.272 120.47C69.16 119.624 69.048 118.778 68.936 117.932C68.824 117.086 68.768 116.24 68.712 115.394C68.656 114.83 68.6 114.21 68.544 113.59C68.488 112.969 68.488 112.349 68.432 111.728L68.208 107.329L68.152 106.37C67.984 105.863 67.76 105.75 67.368 106.032C66.976 106.427 66.584 106.765 66.192 106.991C65.744 107.216 65.296 107.442 64.792 107.724C64.288 108.006 63.84 108.288 63.504 108.514C63.168 108.796 62.664 108.965 62.104 109.021C61.488 109.134 60.872 109.19 60.312 109.247C59.752 109.303 59.304 108.965 58.968 108.288L58.856 108.006C58.632 107.498 58.576 107.104 58.632 106.934C58.688 106.765 59.024 106.54 59.528 106.258C60.2 105.863 60.816 105.637 61.376 105.524C61.88 105.412 62.496 105.186 63.224 104.791C63.896 104.453 64.512 104.114 65.128 103.776C65.744 103.438 66.36 103.099 67.032 102.761C67.928 102.366 68.432 101.746 68.432 100.956C68.432 100.561 68.488 100.336 68.656 100.336C69.048 100.11 69.16 99.828 69.16 99.6024C69.104 99.3204 69.104 99.0384 69.16 98.7564C69.16 98.4744 69.16 98.1924 69.16 97.9104C69.16 97.6284 69.16 97.3464 69.272 97.0644C69.272 96.7824 69.384 96.5568 69.608 96.3876C69.832 96.2184 70.056 96.1056 70.336 96.162C71.288 96.162 72.016 96.6132 72.576 97.4028C72.744 97.6284 72.856 97.9104 72.856 98.1924C72.856 98.4744 72.856 98.8128 72.8 99.0948C72.8 99.4332 72.856 99.6588 72.912 99.7152C72.968 99.828 73.192 99.7716 73.472 99.7152C73.976 99.4332 74.48 99.2076 74.928 98.982C75.376 98.7564 75.88 98.5872 76.328 98.3616C76.776 98.1924 77.224 97.9668 77.672 97.7976C78.12 97.6284 78.568 97.4028 79.016 97.2336L86.24 94.3572C87.136 94.0188 87.976 93.5676 88.76 93.0036C89.6 92.4396 90.44 92.0448 91.392 91.7064L93.576 90.9732C93.688 90.9168 93.744 90.9168 93.8 90.9168C93.856 90.9168 93.912 90.9168 93.968 90.9168C94.136 91.1988 94.248 91.3116 94.304 91.4244ZM74.424 100.674H74.256L74.088 100.73L73.64 100.9L73.472 101.182L73.528 101.351C73.528 101.407 73.584 101.407 73.64 101.407C74.032 101.182 74.312 101.012 74.48 100.956L74.424 100.674ZM76.832 99.3768L76.608 99.4332L76.328 99.546C76.272 99.6024 76.216 99.7152 76.328 99.7152C76.384 99.7716 76.384 99.828 76.328 99.8844C76.44 99.9408 76.496 99.9972 76.496 100.11C76.44 100.166 76.496 100.166 76.608 100.166C76.664 100.166 76.832 100.054 77.056 99.828L77.448 99.4332L76.832 99.3768Z" fill="white"/>
<path d="M99.176 112.8C99.232 112.913 99.232 112.969 99.176 113.026C99.176 113.477 99.064 113.984 98.84 114.605C98.672 115.169 98.448 115.789 98.224 116.466C98 117.086 97.776 117.707 97.552 118.271C97.328 118.835 97.16 119.342 96.992 119.794C96.88 120.301 96.656 120.922 96.376 121.655C96.096 122.388 95.816 123.178 95.48 124.024C95.144 124.87 94.864 125.603 94.528 126.392C94.192 127.126 93.968 127.746 93.8 128.197C93.24 129.607 92.176 130.453 90.776 130.792C90.272 130.904 89.768 131.017 89.208 131.074C88.704 131.13 88.088 131.074 87.472 130.904C86.576 130.566 85.792 130.171 85.12 129.607C84.392 129.043 83.888 128.31 83.552 127.408C83.384 127.126 83.272 126.844 83.16 126.505C83.048 126.167 82.936 125.885 82.824 125.603C82.264 123.516 81.928 121.486 81.928 119.512C81.928 118.666 81.928 117.82 81.928 117.03C81.928 116.184 81.984 115.394 82.04 114.605C82.152 113.308 82.376 112.01 82.656 110.77C82.936 109.529 83.384 108.344 83.888 107.16C84.224 106.483 84.672 106.088 85.232 105.919C85.456 105.863 85.736 105.75 85.96 105.694C86.184 105.637 86.408 105.524 86.632 105.412C87.136 105.13 87.64 105.073 88.144 105.186C88.648 105.299 89.152 105.581 89.656 105.919C89.936 106.088 90.216 106.314 90.44 106.483C90.72 106.652 90.944 106.878 91.168 107.16C91.448 107.386 91.616 107.668 91.56 107.95C91.616 108.739 91.616 109.472 91.672 110.262C91.728 110.995 91.672 111.785 91.56 112.574C91.448 113.364 91.224 114.041 90.944 114.661C90.664 115.282 90.384 115.958 90.048 116.635C89.656 117.256 89.264 117.876 88.984 118.553C88.648 119.173 88.256 119.794 87.752 120.414C87.64 120.583 87.528 120.752 87.472 120.978C87.416 121.204 87.304 121.429 87.248 121.598C87.192 121.655 87.136 121.768 87.136 121.824C87.136 121.88 87.08 121.937 86.968 121.993C86.632 122.219 86.464 122.444 86.464 122.726C86.464 123.008 86.464 123.29 86.52 123.629C86.688 124.418 86.856 125.152 87.08 125.885C87.304 126.618 87.64 127.351 88.144 128.084C88.536 128.592 88.928 128.705 89.376 128.254C89.768 127.915 90.104 127.577 90.496 127.238C90.832 126.9 91.224 126.505 91.56 126.11C91.784 125.716 92.12 125.152 92.512 124.475C92.904 123.798 93.296 123.065 93.688 122.332C94.08 121.598 94.472 120.865 94.808 120.132C95.144 119.399 95.424 118.835 95.648 118.44C95.872 117.932 96.208 117.256 96.768 116.41C97.272 115.564 97.608 114.887 97.72 114.436C97.776 114.154 97.888 113.872 98.056 113.59C98.224 113.364 98.448 113.138 98.672 113.026C98.896 112.631 99.064 112.687 99.176 112.8ZM89.32 107.893C89.264 107.611 89.096 107.329 88.76 106.991C88.704 106.934 88.592 106.822 88.48 106.765C88.368 106.709 88.256 106.652 88.144 106.596C87.64 106.201 87.248 106.258 86.968 106.822C86.912 106.991 86.856 107.216 86.856 107.386C86.8 107.611 86.744 107.78 86.744 107.95C86.688 108.119 86.688 108.344 86.744 108.514C86.8 108.683 86.744 108.908 86.744 109.078C86.632 110.036 86.576 110.882 86.632 111.728C86.688 112.8 86.52 113.815 86.128 114.774C86.016 115.112 85.96 115.394 85.96 115.676C85.96 115.958 85.96 116.24 85.96 116.466C86.184 117.143 86.464 117.256 86.8 116.861C87.304 116.24 87.752 115.62 88.088 114.943C88.424 114.266 88.76 113.533 88.984 112.8C89.208 111.954 89.32 111.108 89.32 110.262C89.32 109.472 89.32 108.683 89.32 107.893Z" fill="white"/>
<path d="M107.016 89.3376C107.352 90.1272 107.576 90.8604 107.688 91.5936C107.8 92.496 107.968 93.3984 108.08 94.3572C108.192 95.316 108.248 96.2748 108.136 97.2336C108.136 97.572 108.136 97.7976 108.192 97.9668C108.36 98.2488 108.416 98.5308 108.36 98.8128C108.304 99.0948 108.248 99.3768 108.192 99.7152C108.024 100.505 107.912 101.238 107.856 101.971C107.8 102.704 107.744 103.438 107.688 104.171C107.688 104.96 107.576 105.75 107.352 106.596C107.128 107.386 106.736 108.119 106.12 108.796C106.008 108.965 105.84 109.247 105.672 109.642C105.504 109.924 105.336 110.206 105.224 110.488C105.112 110.77 104.888 110.995 104.72 111.164C104.272 111.503 104.104 111.841 104.272 112.292C104.328 112.8 104.44 113.364 104.552 113.872C104.664 114.379 104.832 114.887 104.944 115.394C104.944 115.507 104.944 115.62 105 115.733C105.056 115.846 105.056 115.958 105.056 116.071C105.056 117.368 105.28 118.553 105.784 119.737C105.896 120.076 105.952 120.358 105.952 120.527C105.952 122.106 106.176 123.685 106.568 125.208C106.96 126.731 107.296 128.31 107.52 129.889C107.576 130.058 107.632 130.171 107.744 130.34C107.8 130.51 107.912 130.679 107.968 130.792C108.024 130.904 108.024 131.017 108.136 131.13C108.192 131.243 108.248 131.356 108.192 131.468C108.248 132.371 108.472 133.273 108.808 134.063C109.144 134.852 109.368 135.698 109.48 136.601C109.536 137.052 109.648 137.447 109.872 137.898C110.096 138.293 110.32 138.744 110.432 139.139C110.6 139.59 110.768 140.041 110.936 140.492C111.048 141 111.216 141.451 111.328 141.902C111.384 142.128 111.496 142.354 111.664 142.523C111.776 142.692 111.888 142.918 111.944 143.2C112 143.764 112.224 144.328 112.56 144.779C112.896 145.23 113.064 145.794 113.176 146.358C113.232 146.527 113.288 146.584 113.4 146.527C113.624 146.471 113.736 146.414 113.736 146.302C113.848 145.85 114.016 145.456 114.184 145.061C114.352 144.666 114.464 144.271 114.576 143.764C114.632 143.482 114.688 143.2 114.8 142.918C114.856 142.636 114.912 142.354 114.968 142.072C115.08 141.169 115.08 140.267 115.024 139.421C114.968 138.575 114.856 137.672 114.688 136.77C114.072 133.442 113.232 130.058 112.168 126.731C111.832 125.49 111.384 124.362 110.768 123.178C110.32 122.388 109.872 121.655 109.312 121.091L106.456 117.199C106.512 117.086 106.68 117.03 106.904 117.03C107.128 117.03 107.296 117.086 107.464 117.199C107.744 117.425 107.968 117.707 108.136 117.989C108.304 118.271 108.472 118.609 108.696 118.948C108.976 119.512 109.368 120.019 109.76 120.527C110.208 120.978 110.6 121.486 111.048 121.937C111.272 122.332 111.496 122.67 111.72 123.008C111.944 123.347 112.168 123.685 112.392 124.08C113.848 126.731 114.912 129.551 115.472 132.54C116.032 135.529 116.424 138.518 116.536 141.564C116.592 142.072 116.592 142.523 116.648 142.974C116.648 143.425 116.648 143.933 116.592 144.384C116.536 144.835 116.424 145.343 116.312 145.794C116.2 146.302 116.144 146.753 116.088 147.204C116.032 148.05 115.808 148.727 115.36 149.178C114.912 149.629 114.24 149.911 113.232 149.968C112.616 150.024 112.112 149.911 111.664 149.629C111.216 149.404 110.712 149.234 110.152 149.234C110.04 149.234 109.928 149.122 109.816 149.009C109.704 148.896 109.592 148.783 109.48 148.67C109.256 148.276 108.976 147.824 108.752 147.43C108.528 146.978 108.304 146.584 108.024 146.076C107.632 145.23 107.296 144.44 106.904 143.594C106.568 142.748 106.176 141.959 105.784 141.113C105.56 140.605 105.336 139.985 105.168 139.421C105 138.8 104.776 138.236 104.608 137.672C104.384 137.165 104.16 136.657 104.048 136.15C103.88 135.698 103.712 135.134 103.544 134.627C102.816 132.596 102.2 130.566 101.696 128.536C101.192 126.505 100.8 124.418 100.408 122.332C100.184 120.752 99.904 119.173 99.624 117.594C99.344 116.015 99.064 114.492 98.84 112.969C98.504 110.431 98.224 107.837 98.056 105.242C98 104.284 97.944 103.268 97.888 102.31C97.832 101.351 97.776 100.336 97.776 99.3204C97.776 98.5872 97.776 97.9104 97.776 97.2336C97.776 96.5568 97.832 95.88 97.776 95.1468C97.776 94.8084 97.776 94.47 97.776 94.1316C97.776 93.7932 97.776 93.4548 97.776 93.1164C97.832 92.496 97.888 91.8192 97.944 91.1988C98 90.522 98.112 89.9016 98.224 89.2248C98.336 88.548 98.448 87.8148 98.56 87.138C98.672 86.4612 98.84 85.7844 99.008 85.0512C99.008 84.7692 99.064 84.5436 99.12 84.318C99.176 84.0924 99.456 83.9796 99.848 83.9232C99.904 83.9232 99.96 83.8668 100.016 83.8104C100.072 83.754 100.128 83.6412 100.24 83.5848C100.352 83.4156 100.464 83.3028 100.52 83.1336C100.576 82.9644 100.8 82.8516 101.024 82.8516C101.416 82.8516 101.808 82.7952 102.144 82.7952C102.536 82.7388 102.872 82.908 103.208 83.2464C103.544 83.5848 103.88 83.9232 104.216 84.2616C104.552 84.6 104.832 84.9384 105.056 85.3332C105.504 85.9536 105.84 86.574 106.12 87.2508C106.344 87.984 106.68 88.6608 107.016 89.3376ZM105 90.24C104.72 89.676 104.44 89.112 104.16 88.4916C103.88 87.8712 103.6 87.3072 103.32 86.7432C103.096 86.4048 102.872 86.292 102.704 86.3484C102.368 86.574 102.256 86.7432 102.256 86.9124C102.144 87.5892 102.032 88.1532 102.032 88.7172C101.976 89.2812 102.144 89.8452 102.536 90.4656C102.536 90.522 102.592 90.7476 102.592 91.1424C102.648 91.65 102.648 92.1012 102.648 92.6088C102.648 93.1164 102.704 93.5676 102.816 94.0752C102.984 95.316 103.096 96.5004 103.208 97.6284C103.264 98.8128 103.376 99.9972 103.432 101.182C103.432 102.084 103.488 102.93 103.544 103.832C103.6 104.678 103.656 105.581 103.768 106.483C103.768 106.596 103.768 106.709 103.88 106.765C103.936 106.822 104.048 106.878 104.104 106.991C104.16 106.878 104.216 106.765 104.272 106.709C104.328 106.652 104.384 106.596 104.44 106.427C104.608 105.637 104.776 104.904 104.944 104.114C105.112 103.381 105.224 102.592 105.336 101.802C105.448 101.351 105.56 100.956 105.672 100.505C105.728 100.11 105.784 99.6588 105.728 99.2076C105.616 97.9668 105.504 96.7824 105.504 95.598C105.504 94.4136 105.504 93.2856 105.56 92.1012C105.56 91.7628 105.504 91.4244 105.448 91.086C105.392 90.7476 105.336 90.4092 105.336 90.0708L105 90.24Z" fill="white"/>
<path d="M137.816 101.069C138.264 102.084 138.264 102.986 137.816 103.776C137.368 104.566 136.92 105.468 136.528 106.483C136.304 107.216 136.024 108.006 135.688 108.852C135.408 109.698 135.072 110.488 134.736 111.221C134.512 111.785 134.288 112.292 134.176 112.631C134.064 112.969 133.896 113.42 133.616 113.928C133.56 114.154 133.504 114.605 133.504 115.112C133.504 115.676 133.336 115.958 133 116.015C132.608 116.071 132.496 116.128 132.608 116.128C132.72 116.128 132.776 116.297 132.832 116.579C132.888 116.692 132.776 116.804 132.608 116.974C132.44 117.143 132.384 117.256 132.384 117.368C132.44 117.481 132.384 117.594 132.216 117.707C132.048 117.82 131.992 117.989 131.992 118.102C131.936 118.835 131.656 119.455 131.04 120.019C130.424 120.583 129.808 120.809 129.136 120.696C128.464 120.64 127.792 120.414 127.12 120.019C126.392 119.624 125.832 119.286 125.496 118.891C125.16 118.496 124.712 117.932 124.264 117.143C124.096 116.692 123.984 116.24 123.872 115.789C123.76 115.338 123.592 114.887 123.368 114.436C123.312 114.21 123.144 113.872 122.92 113.533C122.696 113.533 122.584 113.646 122.584 113.815C122.584 113.984 122.528 114.154 122.472 114.266C122.024 115.733 121.352 117.03 120.512 118.158C119.784 119.173 118.776 119.568 117.432 119.399C117.32 119.399 117.208 119.342 117.04 119.342C116.872 119.342 116.76 119.342 116.648 119.286C116.032 119.23 115.472 119.004 115.024 118.722C114.576 118.384 114.128 117.989 113.736 117.425C113.232 116.635 112.896 115.846 112.616 115.056C112.336 114.266 112.168 113.477 112 112.744C111.888 112.18 111.776 111.616 111.72 111.052C111.664 110.488 111.664 109.924 111.72 109.36C111.664 107.498 112.056 105.75 112.84 104.171L113.064 103.663C113.288 102.986 113.624 102.422 114.016 102.028C114.408 101.633 114.912 101.182 115.416 100.787C115.92 100.392 116.368 100.223 116.872 100.166C117.376 100.166 117.88 100.166 118.496 100.279C119.056 100.448 119.392 100.73 119.56 101.182C119.84 101.633 120.008 102.028 120.12 102.31C120.176 102.535 120.232 102.761 120.232 102.874C120.232 102.986 120.176 103.043 120.12 103.099C120.064 103.099 120.008 103.212 119.952 103.325L119.56 102.93C119.504 102.874 119.392 102.704 119.336 102.592C119.28 102.422 119.224 102.31 119.112 102.253C119.056 102.197 118.944 102.084 118.776 101.915C118.664 101.802 118.552 101.689 118.384 101.633C117.544 101.407 116.872 101.52 116.424 102.028C116.256 102.197 116.144 102.422 116.144 102.648C116.144 102.93 116.088 103.156 116.088 103.438C116.032 104.058 115.92 104.622 115.808 105.13C115.752 105.412 115.696 105.75 115.696 106.032C115.696 106.314 115.696 106.652 115.64 106.934C115.64 107.329 115.696 107.668 115.752 108.006C115.808 108.344 115.808 108.683 115.864 109.078C115.808 109.19 115.808 109.36 115.864 109.529C115.92 110.093 116.032 110.713 116.144 111.277C116.256 111.841 116.368 112.405 116.48 112.969C116.536 113.308 116.592 113.59 116.704 113.872C116.816 114.154 116.928 114.436 117.04 114.718C117.208 115 117.32 115.282 117.432 115.62C117.544 115.958 117.712 116.24 117.88 116.579C117.936 116.692 117.936 116.804 118.048 116.917C118.104 117.03 118.216 117.086 118.328 117.143C118.552 117.199 118.72 117.086 118.888 116.804C119.896 115.451 120.568 113.928 121.072 112.349C121.296 111.616 121.464 110.882 121.688 110.093C121.856 109.36 122.08 108.57 122.304 107.837C122.416 107.498 122.472 107.16 122.472 106.822C122.472 106.483 122.472 106.145 122.472 105.806C122.528 104.96 122.584 104.114 122.696 103.268C122.808 102.422 122.92 101.633 123.2 100.843C123.144 100.73 123.2 100.674 123.2 100.618C123.256 100.561 123.256 100.505 123.256 100.505C123.144 100.054 123.2 99.6588 123.424 99.3768C123.648 99.0948 123.816 98.8128 123.984 98.5308C124.208 98.3052 124.432 98.136 124.712 98.0796C124.992 98.0232 125.216 98.0796 125.44 98.1924C125.776 98.3616 126.056 98.5308 126.392 98.7564C126.672 98.982 126.84 99.264 126.896 99.7152C126.896 100.11 126.896 100.448 126.896 100.73C126.896 101.012 126.896 101.351 126.896 101.689C126.784 102.084 126.784 102.479 126.84 102.761C126.896 103.325 127.008 103.945 127.008 104.509C127.064 105.073 127.12 105.637 127.176 106.258C127.4 107.273 127.512 108.175 127.568 108.908C127.568 109.642 127.736 110.544 128.072 111.503C128.016 111.39 128.072 111.616 128.184 112.18C128.296 112.744 128.408 113.195 128.464 113.59C128.52 113.984 128.688 114.548 128.912 115.169C129.136 115.789 129.304 116.297 129.416 116.692C129.472 116.861 129.528 117.03 129.64 117.199C129.752 117.368 129.864 117.538 129.976 117.594C130.2 117.65 130.368 117.65 130.48 117.425C130.536 117.256 130.648 117.086 130.704 116.917C130.984 116.41 131.208 115.902 131.376 115.338C131.544 114.774 131.768 114.154 131.992 113.59C132.384 112.856 132.72 112.123 133 111.39C133.336 110.657 133.616 109.924 133.952 109.19C134.064 108.739 134.232 108.344 134.344 107.95C134.512 107.555 134.624 107.104 134.736 106.709C134.904 106.201 135.072 105.694 135.184 105.13C135.296 104.566 135.52 104.002 135.744 103.494C136.248 102.535 136.864 101.746 137.816 101.069Z" fill="white"/>
<path d="M156.296 94.6956C156.632 95.3724 156.856 96.0492 156.912 96.7824C157.024 97.5156 157.08 98.1924 157.08 98.9256C157.136 101.012 156.912 103.099 156.408 105.299C155.848 107.442 155.4 109.529 155.064 111.616C154.84 112.631 154.672 113.59 154.56 114.436C154.448 114.774 154.392 115.056 154.336 115.169C153.776 116.071 153.048 116.297 152.152 115.789C151.816 115.564 151.48 115.338 151.144 115.056C150.808 114.774 150.472 114.492 150.192 114.21C149.856 113.872 149.744 113.533 149.8 113.195C149.8 111.785 149.576 110.375 149.184 109.021C148.792 107.668 148.456 106.314 148.176 104.96C148.12 104.566 148.064 104.171 148.008 103.832C147.952 103.494 147.896 103.099 147.84 102.704C147.672 101.858 147.504 101.069 147.28 100.279C147.056 99.4896 146.888 98.7 146.72 97.854C146.552 97.29 146.216 97.2336 145.824 97.6284C145.712 97.7976 145.6 97.9668 145.432 98.136C145.32 98.3052 145.208 98.4744 145.152 98.7C144.928 99.4332 144.816 100.166 144.704 100.843C144.592 101.52 144.424 102.253 144.2 102.93C143.976 103.72 143.808 104.509 143.752 105.299C143.696 106.088 143.528 106.878 143.36 107.724C143.248 108.119 143.192 108.57 143.08 108.965C142.968 109.36 142.856 109.754 142.8 110.206C142.408 111.728 142.128 113.138 141.848 114.436C141.792 114.718 141.792 114.887 141.848 114.943C142.072 115.338 142.184 115.789 142.072 116.184C141.96 116.635 141.904 117.03 141.96 117.481C141.96 118.045 141.792 118.384 141.456 118.553C141.12 118.722 140.672 118.778 140.224 118.609C139.552 118.384 138.992 118.102 138.544 117.65C138.096 117.256 137.648 116.804 137.256 116.353C137.144 116.184 136.976 115.846 136.864 115.338C136.696 113.308 136.472 111.221 136.248 109.134C136.024 107.047 135.856 104.96 135.8 102.874C135.688 101.407 135.576 99.9408 135.464 98.4744C135.296 97.008 135.128 95.5416 134.96 94.0752C134.848 93.342 134.792 92.6088 134.848 91.932C134.904 91.1988 134.904 90.4656 134.848 89.7324C134.848 89.4504 134.848 89.2248 134.848 88.9992C134.848 88.7736 134.792 88.548 134.792 88.266C134.736 87.702 134.792 87.3072 134.96 87.0816C135.184 86.856 135.576 86.7432 136.136 86.6304C137.088 86.5176 137.816 86.7432 138.32 87.3072C138.824 87.8712 139.384 88.3788 140 88.83C140.224 89.0556 140.336 89.5068 140.336 90.0708C140.392 91.1424 140.504 92.214 140.56 93.1728C140.616 94.188 140.672 95.2032 140.616 96.2748C140.672 97.4028 140.672 98.418 140.728 99.4896C140.784 100.505 140.84 101.576 140.84 102.704C140.896 102.817 140.896 102.874 140.952 102.874C141.008 102.874 141.008 102.93 141.064 103.043C141.12 102.986 141.232 102.93 141.288 102.874C141.344 102.874 141.4 102.817 141.4 102.761C141.624 102.253 141.792 101.689 142.016 101.125C142.184 100.561 142.352 100.054 142.52 99.546C142.912 98.6436 143.248 97.7412 143.64 96.8388C144.032 95.9364 144.592 95.2032 145.488 94.5828C146.048 94.1316 146.72 94.0188 147.56 94.3008C148.288 94.5264 148.792 94.8648 149.128 95.3724C149.408 95.88 149.688 96.444 149.968 97.0644C150.584 98.4744 150.92 99.9408 150.92 101.52C150.864 102.028 150.92 102.535 151.032 103.043C151.144 103.55 151.256 104.002 151.312 104.509C151.424 105.186 151.592 105.863 151.76 106.483C151.928 107.104 152.096 107.724 152.264 108.344C152.264 108.457 152.32 108.57 152.544 108.683C152.6 108.739 152.656 108.683 152.712 108.626C152.768 108.57 152.824 108.457 152.824 108.401C152.936 108.175 152.992 107.893 153.104 107.668C153.216 107.442 153.272 107.16 153.328 106.878C153.608 105.637 153.888 104.34 154.168 103.043C154.392 101.746 154.672 100.505 155.008 99.2076L154.952 99.0384C155.12 98.1924 155.344 97.4028 155.568 96.6132C155.568 95.88 155.904 95.2596 156.296 94.6956ZM142.576 103.268L142.52 103.381H142.576V103.268ZM145.152 97.008H144.984L144.928 97.29V97.3464C144.592 97.0644 144.368 96.9516 144.256 97.008C144.2 97.008 144.144 97.2336 144.144 97.572V97.5156C143.528 98.136 143.192 98.8692 143.136 99.6588C143.08 100.448 142.968 101.238 142.744 101.971V102.028C142.744 102.084 142.8 102.084 142.8 102.14C142.856 102.14 142.856 102.14 142.8 102.084C143.024 102.028 143.136 101.971 143.136 101.858C143.976 100.392 144.536 98.9256 144.76 97.4028H144.816V97.3464L145.152 97.008Z" fill="white"/>
<path d="M112.392 161.699C112.448 161.924 112.448 162.094 112.392 162.376C112.336 162.601 112.168 162.827 112 162.996C111.72 163.334 111.496 163.616 111.328 163.729C111.16 163.898 110.992 164.011 110.824 164.18C110.656 164.35 110.488 164.462 110.32 164.632C110.152 164.801 109.928 165.026 109.648 165.365L105.112 170.892C104.776 171.287 104.552 171.625 104.384 172.02C104.216 172.358 104.104 172.866 104.048 173.486C103.992 174.389 103.992 175.178 104.048 175.855C104.16 176.532 104.44 177.209 104.888 177.998L104.664 182.285C104.72 182.905 104.72 183.3 104.664 183.582C104.608 183.864 104.552 184.428 104.44 185.274C104.384 185.838 104.16 186.346 103.824 186.797C103.6 187.079 103.432 187.417 103.376 187.699C103.32 188.038 103.264 188.32 103.208 188.602C103.096 189.109 102.984 189.504 102.928 189.955C102.872 190.35 102.592 190.745 102.144 191.14C101.976 191.309 101.808 191.534 101.584 191.76C101.36 192.042 101.192 192.268 101.024 192.38C100.632 192.719 100.296 193.114 99.96 193.452C99.624 193.79 99.344 194.242 99.12 194.693C98.84 195.313 98.392 195.764 97.72 196.046C97.104 196.385 96.488 196.723 95.816 197.174C95.48 197.4 95.144 197.569 94.92 197.626C94.248 197.851 93.52 198.077 92.736 198.246C91.952 198.415 91.28 198.415 90.608 198.246C89.936 198.077 89.376 197.851 88.816 197.626C88.312 197.344 87.696 197.005 87.136 196.498C87.08 196.441 86.968 196.385 86.8 196.216C86.408 195.877 86.128 195.539 85.96 195.2C85.792 194.918 85.68 194.467 85.568 193.96C85.344 192.888 85.456 191.986 86.016 191.252C86.576 190.519 87.08 189.617 87.64 188.658C88.592 186.853 89.6 185.387 90.72 184.259C91.84 183.131 92.96 181.89 94.136 180.593C94.304 180.367 94.528 180.142 94.696 179.86C94.864 179.634 95.032 179.352 95.256 179.126C95.312 179.07 95.48 178.957 95.648 178.901C95.816 178.844 95.928 178.732 96.04 178.675C96.096 178.562 96.152 178.45 96.152 178.337C96.152 178.224 96.152 178.111 96.264 177.998C96.376 177.773 96.544 177.491 96.768 177.152C96.992 176.758 97.048 176.476 96.88 176.306C96.544 175.968 96.208 175.573 95.816 175.066C95.424 174.558 94.976 174.05 94.528 173.486C94.024 172.922 93.52 172.415 92.96 171.907C92.4 171.4 91.728 171.061 91.056 170.779C90.44 170.554 89.824 170.328 89.208 170.159C88.592 169.933 87.976 169.708 87.416 169.482C86.464 169.087 85.512 168.692 84.56 168.298C83.608 167.903 82.768 167.452 81.984 166.944C81.256 166.436 80.64 165.816 80.08 165.196C79.52 164.575 79.128 163.786 78.904 162.883C78.4 160.966 78.344 158.992 78.624 156.961C78.792 155.946 79.128 154.987 79.744 153.916C80.304 152.9 80.976 151.998 81.648 151.208C82.88 149.742 84.28 148.332 85.848 146.866C86.576 146.302 87.248 145.794 87.752 145.456C88.312 145.117 88.928 144.666 89.656 144.046C90.496 143.369 91.504 143.087 92.624 143.143C93.744 143.256 94.752 143.482 95.76 143.82C97.44 144.384 98.448 145.456 98.784 146.922C99.12 148.445 99.176 149.968 98.896 151.434C98.616 152.9 98.112 154.367 97.328 155.777C96.936 156.51 96.544 157.243 96.152 157.976C95.76 158.653 95.368 159.386 94.92 160.12C94.528 160.684 94.192 161.022 93.968 161.078C93.744 161.135 93.24 161.135 92.512 161.022C92.064 160.966 91.728 160.853 91.504 160.796C91 160.684 90.776 160.571 90.72 160.458C90.664 160.345 90.832 160.12 91.224 159.725C92.008 158.935 92.624 158.146 93.072 157.243C93.52 156.341 94.024 155.495 94.584 154.649C94.976 154.085 95.312 153.521 95.592 152.957C95.872 152.393 96.152 151.829 96.544 151.208C97.16 150.137 97.216 149.009 96.656 147.937C96.376 147.43 96.096 146.922 95.872 146.414C95.592 145.907 95.144 145.512 94.36 145.286C93.688 145.061 92.904 145.061 92.064 145.174C91.224 145.343 90.496 145.625 89.88 146.132C89.544 146.414 89.208 146.696 88.872 146.978C88.536 147.26 88.2 147.542 87.864 147.824C86.968 148.501 86.128 149.291 85.4 150.08C84.672 150.926 84.168 151.885 83.832 152.957C83.664 153.521 83.384 154.028 83.048 154.536C82.712 154.987 82.488 155.608 82.32 156.284C82.264 156.566 82.208 156.848 82.208 157.074C82.208 157.3 82.208 157.582 82.208 157.92C82.208 158.146 82.32 158.428 82.432 158.822C82.6 159.33 82.768 159.725 82.936 160.063C83.104 160.402 83.384 160.796 83.72 161.191C83.832 161.304 83.944 161.473 84.112 161.642C84.784 162.376 85.4 162.996 85.848 163.56C86.352 164.124 87.024 164.575 87.92 164.914C89.488 165.478 91.056 166.042 92.624 166.493C94.192 167 95.76 167.508 97.328 168.072C98.112 168.354 98.728 168.749 99.176 169.2C99.568 169.708 100.128 170.102 100.856 170.497C101.08 170.554 101.304 170.836 101.472 171.174C101.64 171.569 101.808 171.682 102.032 171.456C102.088 171.4 102.256 171.23 102.424 171.061C102.592 170.892 102.816 170.723 102.984 170.497C103.152 170.272 103.32 170.159 103.544 170.046C103.712 169.933 103.88 169.877 103.992 169.877C104.048 169.99 104.16 169.933 104.328 169.651C104.384 169.595 104.496 169.538 104.608 169.482C104.16 168.805 104.104 168.298 104.496 167.959C104.888 167.621 105.336 167.339 105.84 167.057C106.008 166.38 106.232 165.929 106.512 165.703C106.792 165.421 107.296 165.252 108.024 165.139C108.248 165.139 108.416 165.026 108.584 164.914C108.752 164.801 108.92 164.632 109.088 164.519C109.144 164.406 109.144 164.293 109.088 164.18C108.808 163.898 108.696 163.673 108.696 163.56C108.696 163.447 108.808 163.334 108.976 163.109C109.312 162.827 109.536 162.658 109.704 162.545C109.816 162.432 109.928 162.376 110.04 162.263C110.096 162.15 110.208 161.981 110.32 161.868C110.432 161.755 110.6 161.53 110.768 161.248C110.824 161.135 110.992 161.022 111.216 160.909C111.44 160.853 111.608 160.796 111.72 160.796C111.944 160.853 112.224 160.966 112.392 161.135C112.224 161.417 112.336 161.53 112.392 161.699ZM97.832 179.634C97.608 178.957 97.16 178.901 96.6 179.578C96.264 179.972 95.872 180.367 95.536 180.762C95.144 181.157 94.808 181.495 94.472 181.946C94.136 182.341 93.744 182.736 93.408 183.187C93.072 183.582 92.736 184.033 92.4 184.372C92.064 184.936 91.672 185.443 91.336 185.951C91 186.402 90.664 187.022 90.272 187.756C89.992 188.263 89.824 188.714 89.712 188.996C89.6 189.335 89.432 189.73 89.208 190.237C89.04 190.576 88.872 190.801 88.648 191.027C88.424 191.196 88.312 191.478 88.368 191.873C88.368 192.098 88.424 192.268 88.536 192.38C88.648 192.493 88.648 192.606 88.648 192.775C88.704 193.114 88.648 193.339 88.536 193.621C88.424 193.847 88.368 194.072 88.424 194.354C88.536 194.749 88.76 195.031 88.984 195.257C89.208 195.482 89.488 195.708 89.88 195.934C90.496 196.328 91.056 196.61 91.56 196.836C92.064 197.005 92.736 196.892 93.688 196.385C93.8 196.272 94.024 196.159 94.304 195.934C94.584 195.708 94.808 195.482 95.032 195.257C95.76 194.242 96.432 193.283 97.048 192.493C97.664 191.704 98.112 190.688 98.336 189.56C98.56 188.489 98.784 187.417 98.952 186.346C99.12 185.274 99.12 184.202 98.896 183.187C98.784 182.623 98.672 182.003 98.448 181.439C98.28 180.762 98.056 180.198 97.832 179.634ZM96.544 195.934C96.488 195.877 96.432 195.877 96.432 195.821C96.208 195.877 96.096 195.99 96.04 196.046C95.928 196.328 95.76 196.498 95.648 196.667L95.76 196.723C95.76 196.78 95.816 196.78 95.872 196.78C95.984 196.61 96.096 196.498 96.208 196.385C96.32 196.272 96.432 196.103 96.544 195.934ZM98.112 194.016C98.168 194.016 98.168 193.96 98.112 193.96C98.056 193.903 98 193.903 97.944 193.96C97.72 194.129 97.552 194.354 97.384 194.58C97.216 194.806 97.048 195.031 96.88 195.257C96.88 195.313 96.936 195.313 97.048 195.257C97.104 195.257 97.104 195.257 97.16 195.313C97.496 194.918 97.832 194.524 98.112 194.016ZM100.52 189.899C100.184 189.842 100.016 189.73 100.072 189.448C100.128 189.222 100.072 189.053 99.848 188.94C99.792 189.504 99.68 190.068 99.568 190.632C99.456 191.196 99.176 191.704 98.84 192.211C98.728 192.38 98.616 192.606 98.504 193.001C98.448 193.057 98.448 193.17 98.504 193.226C98.616 193.17 98.672 193.17 98.672 193.057C98.728 193.057 98.784 192.944 98.84 192.832L100.464 190.294C100.52 190.237 100.576 190.124 100.576 190.012C100.576 189.899 100.576 189.899 100.52 189.899ZM96.096 178.506L95.984 178.732C96.04 178.675 96.096 178.619 96.152 178.562L96.096 178.506ZM104.608 168.58V168.636H104.664L104.608 168.58ZM106.344 166.662C106.288 166.718 106.176 166.831 106.064 166.831C105.952 166.888 105.896 166.944 105.784 167C105.672 167.057 105.616 167.113 105.504 167.17L104.664 168.523C104.944 168.298 105.224 168.128 105.504 167.903C105.784 167.677 106.064 167.508 106.344 167.282C106.4 167.226 106.456 167.113 106.4 167C106.344 166.888 106.344 166.775 106.344 166.662Z" fill="white"/>
<path d="M128.52 161.868C128.352 162.77 128.128 163.786 127.792 164.97C127.456 166.154 127.176 167.17 126.896 168.072C126.616 169.031 126.224 169.933 125.72 170.779C125.216 171.569 124.824 172.528 124.544 173.543C124.376 174.163 124.096 174.614 123.704 174.896C123.368 175.178 123.2 175.46 123.144 175.686C123.144 175.968 123.032 176.25 122.864 176.588C122.64 176.927 122.472 177.209 122.304 177.434C122.136 177.66 121.968 177.886 121.688 178.055C121.184 178.337 120.736 178.562 120.344 178.788C119.952 179.014 119.504 179.239 118.944 179.465C118.384 179.69 117.88 179.916 117.432 180.085C116.984 180.254 116.536 180.198 116.032 179.972C115.528 179.86 115.08 179.69 114.688 179.465C114.24 179.239 113.848 179.014 113.456 178.788C112.784 178.337 112.224 177.773 111.776 176.983C111.328 176.194 110.992 175.348 110.712 174.389C110.432 173.486 110.208 172.528 110.04 171.625C109.872 170.666 109.76 169.877 109.648 169.2C109.424 167.226 109.48 165.252 109.816 163.278C110.152 161.304 110.824 159.386 111.944 157.582C112 157.469 112.056 157.3 112.112 157.187C112.168 157.074 112.224 156.961 112.28 156.792C112.392 156.51 112.56 156.341 112.784 156.284C113.176 156.172 113.568 156.002 113.96 155.89C114.352 155.777 114.744 155.664 115.136 155.551C115.976 155.269 116.648 155.213 117.096 155.382C117.544 155.551 117.936 155.89 118.216 156.397C118.272 156.566 118.384 156.679 118.608 156.792C119 157.13 119.224 157.469 119.392 157.864C119.504 158.258 119.616 158.653 119.616 159.104C119.672 159.33 119.672 159.499 119.56 159.725C119.448 159.95 119.336 160.176 119.168 160.402C118.944 160.684 118.664 160.796 118.272 160.684C118.048 160.627 117.88 160.458 117.768 160.12C117.656 159.894 117.544 159.612 117.432 159.386C117.32 159.104 117.208 158.822 117.096 158.54C116.872 158.202 116.648 157.92 116.536 157.807C116.032 157.412 115.752 157.525 115.64 158.089C115.64 158.371 115.584 158.653 115.472 158.879C115.416 159.104 115.248 159.386 115.08 159.612C114.968 159.668 114.968 159.781 115.024 159.95C114.968 160.74 114.912 161.53 114.912 162.376C114.856 163.165 114.856 164.011 114.8 164.801C114.8 164.914 114.8 165.026 114.8 165.026C114.8 165.083 114.8 165.139 114.8 165.252C114.632 165.816 114.632 166.324 114.744 166.831C114.856 167.339 114.912 167.903 114.968 168.41C114.968 168.749 114.968 169.031 115.024 169.369C115.024 169.651 115.08 169.933 115.08 170.215C115.248 171.23 115.416 172.189 115.584 173.092C115.752 174.05 116.088 174.953 116.536 175.799C116.648 176.024 116.816 176.25 116.928 176.532C117.04 176.814 117.208 177.04 117.432 177.209C117.488 177.378 117.6 177.378 117.824 177.322C118.216 177.209 118.552 177.04 118.888 176.927C119.224 176.814 119.448 176.532 119.672 176.194C120.008 175.742 120.4 175.348 120.904 175.066C121.352 174.784 121.8 174.389 122.136 173.938C122.192 173.825 122.248 173.712 122.304 173.599C122.36 173.486 122.416 173.374 122.472 173.261C122.92 172.358 123.424 171.512 123.872 170.61C124.32 169.708 124.768 168.862 125.16 167.903C125.272 167.621 125.44 167.282 125.608 166.775C125.776 166.267 125.944 165.816 126.168 165.308C126.392 164.801 126.616 164.293 126.84 163.786C127.064 163.278 127.344 162.883 127.624 162.658C127.792 162.432 127.96 162.206 128.072 162.037C128.072 161.981 128.24 161.868 128.52 161.868Z" fill="white"/>
<path d="M150.976 158.484C150.976 159.499 150.92 160.514 150.808 161.586C150.808 161.868 150.752 162.15 150.696 162.376C150.64 162.601 150.584 162.883 150.472 163.109C150.416 163.278 150.36 163.504 150.192 163.842C150.08 164.124 150.08 164.35 150.192 164.575C150.136 164.632 150.024 164.801 149.912 164.97C149.576 165.76 149.24 166.549 148.96 167.339C148.68 168.128 148.344 168.918 148.008 169.708C147.84 170.102 147.728 170.497 147.56 170.836C147.392 171.23 147.224 171.569 147 171.964C146.944 172.076 146.888 172.189 146.776 172.302C146.72 172.358 146.608 172.471 146.552 172.64C146.272 172.979 146.104 173.261 146.048 173.543C145.656 175.066 144.872 175.404 143.64 174.671C143.192 174.445 142.856 174.107 142.688 173.599C142.352 172.753 142.072 171.964 141.792 171.118C141.512 170.272 141.344 169.369 141.288 168.467C140.952 167.452 140.784 166.493 140.672 165.478C140.616 164.462 140.56 163.447 140.448 162.432C140.392 161.417 140.336 160.402 140.336 159.33C140.336 158.315 140.28 157.243 140.28 156.228C140.224 155.777 140.224 155.382 140.168 154.931C140.112 154.48 140.112 154.085 140.056 153.634C140 153.521 139.944 153.408 139.776 153.239C139.72 153.239 139.608 153.352 139.44 153.521C139.328 153.859 139.216 154.141 139.104 154.423C138.992 154.705 138.88 155.044 138.768 155.326C138.376 156.397 137.984 157.469 137.592 158.597C137.2 159.725 136.808 160.796 136.416 161.924C136.136 162.827 135.856 163.673 135.632 164.519C135.408 165.365 135.184 166.211 134.904 167.057C134.848 167.339 134.792 167.621 134.736 167.846C134.68 168.072 134.624 168.354 134.512 168.58C134.176 169.369 134.008 170.159 134.064 170.948C134.12 171.738 134.176 172.528 134.232 173.317C134.232 173.543 134.288 173.712 134.4 173.938C134.512 174.107 134.568 174.332 134.568 174.614C134.736 175.46 134.624 176.024 134.288 176.363C133.952 176.701 133.336 176.758 132.552 176.476C131.04 176.081 129.808 175.178 128.912 173.938C128.688 173.656 128.52 173.374 128.352 173.092C128.184 172.81 128.184 172.415 128.296 171.964C128.352 171.738 128.296 171.512 128.24 171.23C128.184 171.005 128.072 170.723 128.072 170.441C127.96 169.595 127.848 168.749 127.792 167.959C127.68 167.113 127.568 166.267 127.456 165.365C127.232 163.729 127.008 162.094 126.784 160.514C126.56 158.879 126.336 157.3 126.168 155.72C126.112 155.269 126.056 154.762 126 154.31C125.944 153.859 125.888 153.352 125.832 152.9C125.72 152.167 125.608 151.434 125.608 150.701C125.552 149.968 125.384 149.291 125.048 148.614C125.048 148.558 125.048 148.501 125.048 148.501C125.048 148.445 125.048 148.445 125.048 148.388C124.992 147.486 124.936 146.584 124.88 145.738C124.824 144.892 124.768 143.989 124.768 143.143C124.712 143.03 124.712 142.974 124.712 142.918C124.712 142.861 124.712 142.805 124.656 142.692C124.376 142.072 124.264 141.451 124.208 140.774C124.208 140.098 124.152 139.421 124.152 138.744C124.096 138.011 124.04 137.278 123.928 136.544C123.816 135.811 123.76 135.078 123.704 134.345C123.704 134.176 123.704 133.894 123.648 133.442V131.976C123.592 131.525 123.536 131.017 123.536 130.51C123.536 130.002 123.536 129.551 123.592 129.1C123.592 128.705 123.76 128.423 124.152 128.141C124.544 127.915 124.992 127.802 125.384 127.915C125.72 128.028 126 128.141 126.336 128.197C126.672 128.254 127.008 128.423 127.344 128.536C127.848 128.818 128.184 129.212 128.24 129.833C128.296 130.397 128.408 131.017 128.52 131.581C128.688 132.371 128.632 133.104 128.352 133.781C128.296 134.006 128.296 134.232 128.296 134.514C128.296 134.796 128.352 135.022 128.464 135.247C128.744 135.811 128.912 136.375 128.912 136.996C128.912 137.616 128.912 138.236 128.856 138.857C128.856 139.646 128.856 140.38 128.968 141.113C129.08 141.846 129.136 142.579 129.248 143.369C129.36 143.933 129.416 144.553 129.528 145.117C129.64 145.738 129.696 146.302 129.808 146.866C129.976 147.994 130.144 149.065 130.312 150.193C130.48 151.265 130.648 152.393 130.76 153.521C130.872 154.085 130.928 154.649 130.928 155.269C130.928 155.833 130.984 156.397 131.096 157.018C131.096 157.3 131.096 157.582 131.208 157.807C131.264 158.033 131.376 158.315 131.376 158.597C131.488 159.161 131.488 159.725 131.544 160.232C131.544 160.74 131.6 161.304 131.656 161.812C131.656 162.037 131.712 162.263 131.712 162.432C131.712 162.658 131.88 162.77 132.16 162.77C132.272 162.77 132.496 162.658 132.832 162.319C133.168 162.037 133.336 161.755 133.392 161.586C134.008 160.12 134.568 158.597 135.184 157.074C135.744 155.551 136.36 154.028 136.976 152.562C137.2 151.998 137.48 151.434 137.816 150.87C138.152 150.306 138.432 149.798 138.768 149.234C138.88 149.065 139.048 148.952 139.272 148.84C139.496 148.727 139.664 148.614 139.832 148.501C139.944 148.332 140.112 148.332 140.28 148.445C140.504 148.501 140.784 148.614 141.008 148.727C141.232 148.84 141.456 148.952 141.736 149.009C142.296 149.347 142.688 149.798 142.856 150.306C143.024 150.814 143.136 151.378 143.192 151.998C143.304 152.9 143.36 153.859 143.528 154.762C143.64 155.72 143.752 156.623 143.752 157.582C143.808 158.484 143.808 159.443 143.808 160.402C143.808 161.36 143.808 162.263 143.864 163.222C143.864 163.786 143.92 164.293 143.976 164.801C144.032 165.308 144.032 165.816 144.032 166.38C144.032 167.113 144.2 167.734 144.424 168.354C144.704 168.974 144.816 169.595 144.76 170.328C144.704 170.384 144.76 170.441 144.816 170.497C144.872 170.554 144.928 170.554 144.984 170.554C145.096 170.61 145.208 170.554 145.32 170.328C145.432 169.99 145.544 169.595 145.768 169.256C145.936 168.918 146.104 168.523 146.16 168.128C146.272 167.677 146.44 167.17 146.664 166.662C146.888 166.154 147.112 165.647 147.336 165.139C147.616 164.462 147.84 163.729 148.12 163.052C148.4 162.376 148.624 161.642 148.904 160.966C149.128 160.289 149.352 159.612 149.576 158.992C149.8 158.371 150.136 157.694 150.416 157.018C150.752 157.187 150.92 157.412 151.032 157.694C150.92 157.92 150.976 158.202 150.976 158.484ZM136.584 155.326C136.304 155.551 136.192 155.664 136.192 155.777C136.136 155.89 136.08 156.172 136.136 156.566H136.304C136.36 156.397 136.416 156.172 136.528 155.946C136.64 155.72 136.696 155.495 136.752 155.326H136.584ZM139.16 149.686C138.992 149.742 138.936 149.798 138.88 149.855C138.656 150.25 138.432 150.701 138.208 151.096C137.984 151.547 137.816 151.942 137.592 152.336H137.536V152.393L136.864 154.085C136.808 154.198 136.864 154.31 137.032 154.367L137.256 154.31C137.368 153.972 137.48 153.69 137.592 153.352C137.704 153.013 137.704 152.731 137.536 152.393L137.592 152.28C137.928 152.336 138.208 152.167 138.376 151.772C138.488 151.434 138.6 151.152 138.712 150.87C138.824 150.588 138.992 150.25 139.16 149.911C139.104 149.855 139.104 149.742 139.16 149.686Z" fill="white"/>
<path d="M158.704 140.21C158.48 140.549 158.312 140.887 158.144 141.226C157.976 141.564 157.808 141.902 157.64 142.241C157.472 142.636 157.36 142.748 157.36 142.579C157.36 142.41 157.304 142.241 157.304 142.128C157.192 141.902 157.08 141.846 156.968 141.902C156.912 141.959 156.8 142.072 156.744 142.241C156.576 142.636 156.464 143.03 156.296 143.369C156.128 143.764 156.016 144.158 155.904 144.553C155.68 145.738 155.456 146.866 155.232 147.994C155.008 149.122 154.784 150.25 154.56 151.434C154.56 151.547 154.56 151.66 154.56 151.716C154.56 151.772 154.616 151.885 154.56 151.998C154.616 152.111 154.672 152.167 154.784 152.224C154.84 152.167 154.84 152.111 154.896 152.111C154.952 152.111 155.008 152.054 155.008 151.998C155.12 151.547 155.232 151.039 155.344 150.588C155.456 150.137 155.568 149.686 155.68 149.178C155.848 148.388 156.016 147.655 156.184 146.922C156.352 146.189 156.52 145.399 156.688 144.553C156.688 144.44 156.744 144.384 156.8 144.328C156.856 144.271 156.856 144.215 156.912 144.102C156.968 144.328 157.024 144.553 157.024 144.722C156.744 147.148 156.464 149.46 156.296 151.772C156.184 152.957 156.128 154.141 156.016 155.269C155.96 156.454 155.904 157.638 155.848 158.822C155.848 159.443 155.904 160.007 156.072 160.627C156.24 161.191 156.352 161.812 156.464 162.432C156.576 163.052 156.688 163.673 156.912 164.293C157.08 164.914 157.248 165.534 157.36 166.154C157.36 166.267 157.36 166.38 157.416 166.549C157.472 166.718 157.472 166.831 157.416 166.944C157.36 167.564 157.192 167.959 156.856 168.128C156.576 168.298 156.128 168.185 155.68 167.846C155.176 167.564 154.616 167.282 154.112 166.944C153.608 166.606 153.16 166.154 152.768 165.647C152.376 165.196 152.152 164.688 152.096 164.124C152.04 163.616 151.928 163.052 151.816 162.545C151.536 161.36 151.256 160.176 150.976 158.992C150.696 157.807 150.472 156.566 150.248 155.382C150.08 154.536 149.856 153.634 149.688 152.731C149.52 151.829 149.296 150.926 149.128 150.08L147.56 140.944C147.28 139.421 147.896 138.631 149.52 138.688C149.8 138.688 150.08 138.744 150.304 138.744C150.528 138.8 150.752 138.8 150.976 138.857C151.48 138.97 151.872 139.252 152.208 139.646C152.544 140.041 152.824 140.492 152.992 141C153.104 141.564 153.216 142.128 153.328 142.636C153.496 143.143 153.496 143.651 153.496 144.158C153.44 144.835 153.496 145.512 153.664 146.189C153.832 146.866 153.832 147.542 153.832 148.219C153.832 148.332 153.832 148.445 153.888 148.501C153.944 148.614 154 148.67 154 148.783C154.056 148.67 154.112 148.558 154.168 148.501C154.224 148.445 154.28 148.388 154.28 148.276C154.56 147.317 154.784 146.358 155.008 145.399C155.232 144.44 155.456 143.482 155.736 142.523C155.848 142.072 156.016 141.62 156.24 141.169C156.464 140.774 156.688 140.323 156.912 139.872C157.192 139.252 157.696 139.082 158.312 139.195C158.648 139.308 158.872 139.364 158.928 139.477C158.928 139.646 158.872 139.872 158.704 140.21Z" fill="white"/>
<path d="M186.928 140.662C187.376 141.677 187.376 142.579 186.928 143.369C186.48 144.158 186.088 145.061 185.696 146.076C185.472 146.809 185.192 147.599 184.912 148.445C184.632 149.291 184.296 150.08 184.016 150.757C183.792 151.321 183.624 151.772 183.512 152.111C183.4 152.449 183.232 152.9 182.952 153.408C182.896 153.634 182.84 154.028 182.84 154.592C182.84 155.156 182.672 155.438 182.336 155.495C182 155.551 181.832 155.608 181.944 155.608C182.056 155.608 182.112 155.777 182.168 156.002C182.224 156.115 182.112 156.228 182 156.397C181.832 156.566 181.776 156.679 181.832 156.792C181.888 156.905 181.832 157.018 181.664 157.13C181.496 157.243 181.44 157.412 181.44 157.525C181.384 158.258 181.104 158.879 180.544 159.443C179.984 160.007 179.312 160.232 178.64 160.12C177.968 160.063 177.296 159.838 176.624 159.499C175.896 159.161 175.392 158.766 175 158.371C174.664 157.976 174.216 157.412 173.768 156.623C173.6 156.172 173.488 155.72 173.376 155.269C173.264 154.818 173.096 154.367 172.872 153.972C172.816 153.746 172.648 153.408 172.424 153.07C172.2 153.07 172.088 153.182 172.088 153.352C172.088 153.521 172.032 153.69 171.976 153.803C171.528 155.269 170.912 156.566 170.072 157.694C169.344 158.71 168.392 159.104 167.048 158.992C166.936 158.992 166.824 158.992 166.656 158.935C166.544 158.935 166.376 158.935 166.264 158.879C165.648 158.822 165.088 158.653 164.64 158.315C164.192 157.976 163.744 157.582 163.352 157.074C162.848 156.284 162.512 155.551 162.232 154.762C161.952 153.972 161.784 153.239 161.616 152.449C161.504 151.885 161.392 151.321 161.336 150.757C161.28 150.193 161.28 149.629 161.28 149.065C161.224 147.204 161.56 145.512 162.344 143.933L162.568 143.425C162.792 142.748 163.072 142.184 163.52 141.79C163.912 141.395 164.416 140.944 164.92 140.549C165.368 140.154 165.872 139.985 166.376 139.928C166.88 139.928 167.384 139.928 167.944 139.985C168.504 140.154 168.84 140.436 169.008 140.887C169.288 141.338 169.456 141.733 169.568 142.015C169.624 142.241 169.68 142.466 169.68 142.579C169.68 142.692 169.624 142.748 169.568 142.805C169.512 142.805 169.456 142.918 169.4 143.03L169.008 142.636C168.952 142.579 168.84 142.466 168.784 142.297C168.728 142.128 168.672 142.015 168.56 141.959C168.504 141.902 168.392 141.79 168.224 141.677C168.112 141.564 168 141.451 167.832 141.395C166.992 141.169 166.376 141.338 165.928 141.79C165.76 141.959 165.648 142.184 165.648 142.41C165.648 142.692 165.592 142.918 165.592 143.2C165.536 143.82 165.424 144.384 165.312 144.835C165.256 145.117 165.2 145.456 165.2 145.738C165.2 146.02 165.2 146.358 165.144 146.64C165.144 147.035 165.2 147.373 165.256 147.655C165.312 147.994 165.368 148.332 165.368 148.67C165.312 148.783 165.312 148.952 165.368 149.065C165.48 149.629 165.536 150.193 165.648 150.757C165.76 151.321 165.872 151.885 166.04 152.449C166.096 152.788 166.152 153.07 166.264 153.295C166.376 153.577 166.488 153.859 166.6 154.141C166.768 154.423 166.88 154.705 167.048 155.044C167.16 155.382 167.328 155.664 167.496 156.002C167.552 156.115 167.552 156.228 167.664 156.341C167.72 156.454 167.832 156.51 167.944 156.51C168.168 156.566 168.336 156.454 168.504 156.172C169.456 154.818 170.184 153.295 170.632 151.716C170.8 150.983 171.024 150.25 171.192 149.516C171.36 148.783 171.584 148.05 171.752 147.317C171.864 146.978 171.92 146.696 171.92 146.302C171.92 145.963 171.92 145.625 171.92 145.286C171.976 144.44 172.032 143.594 172.088 142.805C172.144 141.959 172.312 141.169 172.536 140.38C172.48 140.267 172.48 140.21 172.536 140.154C172.592 140.098 172.592 140.041 172.592 140.041C172.48 139.59 172.536 139.195 172.76 138.913C172.984 138.631 173.152 138.349 173.32 138.067C173.488 137.842 173.768 137.672 174.048 137.616C174.328 137.56 174.552 137.616 174.776 137.729C175.112 137.898 175.392 138.067 175.728 138.293C176.008 138.518 176.176 138.8 176.232 139.252C176.232 139.646 176.232 139.985 176.232 140.267C176.232 140.549 176.232 140.887 176.232 141.226C176.176 141.62 176.12 142.015 176.176 142.297C176.288 142.861 176.344 143.425 176.4 143.989C176.456 144.553 176.512 145.117 176.624 145.681C176.848 146.696 177.016 147.599 177.016 148.332C177.016 149.065 177.24 149.911 177.576 150.926C177.52 150.814 177.576 151.039 177.688 151.603C177.8 152.167 177.912 152.618 178.024 153.013C178.08 153.408 178.248 153.916 178.472 154.536C178.696 155.156 178.864 155.664 178.976 156.059C179.032 156.228 179.088 156.397 179.2 156.566C179.312 156.736 179.424 156.905 179.536 156.961C179.76 157.018 179.928 156.961 180.04 156.792C180.096 156.623 180.208 156.454 180.264 156.284C180.544 155.777 180.768 155.269 180.936 154.705C181.104 154.141 181.272 153.521 181.552 152.957C181.888 152.224 182.224 151.49 182.56 150.757C182.84 150.024 183.176 149.291 183.456 148.558C183.568 148.106 183.736 147.712 183.848 147.317C183.96 146.922 184.128 146.471 184.24 146.076C184.408 145.568 184.52 145.061 184.632 144.497C184.744 143.933 184.912 143.369 185.192 142.861C185.36 142.128 185.976 141.282 186.928 140.662Z" fill="white"/>
<path d="M214.648 137.108C214.816 137.052 214.928 137.221 214.872 137.56C214.816 137.954 214.704 138.349 214.592 138.857C214.48 139.364 214.256 139.985 213.92 140.831C213.584 141.564 213.304 142.241 213.024 142.974C212.744 143.707 212.52 144.44 212.408 145.23C212.296 145.85 212.128 146.527 211.848 147.148C211.568 147.768 211.288 148.445 210.952 149.122C210.616 149.911 210.224 150.701 209.832 151.49C209.44 152.28 209.16 153.182 209.048 154.085C208.936 154.705 208.6 155.156 207.984 155.382C207.368 155.608 206.808 155.495 206.36 155.044C205.968 154.649 205.576 154.198 205.184 153.803C204.848 153.352 204.456 152.9 204.064 152.449C203.728 152.111 203.504 151.716 203.392 151.265C203.28 150.814 203.224 150.306 203.168 149.855C202.888 148.106 202.664 146.358 202.44 144.61C202.216 142.861 202.104 141.056 202.048 139.308C201.992 138.349 201.936 137.39 201.824 136.432C201.712 135.473 201.656 134.514 201.6 133.612C201.6 133.499 201.6 133.386 201.544 133.33C201.488 133.273 201.432 133.16 201.432 133.104C201.208 133.273 201.096 133.442 201.04 133.555C200.704 134.458 200.424 135.36 200.256 136.262C200.088 137.165 199.92 138.124 199.808 139.026C199.752 139.252 199.752 139.477 199.752 139.646C199.752 139.872 199.64 139.985 199.36 140.154C199.304 140.21 199.304 140.38 199.248 140.605C199.36 141.451 199.36 142.241 199.136 143.03C198.968 143.82 198.8 144.61 198.632 145.456C198.576 145.625 198.52 145.794 198.52 145.963C198.52 146.132 198.464 146.302 198.408 146.414C198.24 147.148 198.072 147.881 197.904 148.558C197.736 149.291 197.624 149.968 197.456 150.701C197.4 150.926 197.4 151.152 197.456 151.378C197.456 151.603 197.456 151.829 197.456 152.054C197.512 152.336 197.512 152.731 197.456 153.295C197.4 153.577 197.288 153.803 197.064 153.859C196.84 153.916 196.672 153.859 196.448 153.69C196.112 153.408 195.776 153.295 195.496 153.295C195.16 153.295 194.936 153.182 194.768 152.9C194.6 152.618 194.544 152.393 194.488 152.111C194.264 150.926 194.096 149.742 194.04 148.614C193.928 147.542 193.872 146.471 193.816 145.456C193.76 144.44 193.648 143.369 193.592 142.297C193.592 142.184 193.592 142.072 193.536 142.015C193.48 141.959 193.424 141.846 193.424 141.79C193.368 141.846 193.256 141.902 193.2 141.959C193.144 141.959 193.088 142.072 193.088 142.184C192.64 143.143 192.304 144.158 192.024 145.174C191.744 146.189 191.464 147.26 191.24 148.332C191.128 148.84 191.016 149.291 190.904 149.798C190.792 150.306 190.68 150.757 190.568 151.321C190.512 151.716 190.512 152.111 190.568 152.562C190.624 153.07 190.68 153.634 190.624 154.141C190.624 154.649 190.736 155.213 190.96 155.72C191.128 156.115 191.072 156.454 190.792 156.848C190.456 157.243 190.12 157.412 189.672 157.412C188.832 157.412 188.104 157.13 187.488 156.51C186.928 156.002 186.368 155.438 185.864 154.931C185.752 154.874 185.64 154.762 185.64 154.592C185.64 154.423 185.584 154.31 185.528 154.198C185.136 151.039 184.744 147.881 184.408 144.779C184.072 141.677 183.848 138.518 183.736 135.36C183.736 134.852 183.736 134.345 183.792 133.837C183.792 133.33 183.904 132.822 184.016 132.371C184.296 131.694 184.744 131.243 185.36 131.074C185.808 130.904 186.2 130.904 186.592 131.017C186.928 131.13 187.32 131.243 187.6 131.412C187.88 131.581 188.048 131.807 188.16 131.976C188.272 132.202 188.328 132.427 188.44 132.653C188.664 133.273 188.776 133.894 188.832 134.514C188.888 135.134 188.888 135.755 188.888 136.375C188.888 137.278 188.944 138.124 189.056 138.913C189.168 139.759 189.224 140.605 189.28 141.451C189.336 141.902 189.336 142.41 189.336 142.918C189.336 143.425 189.392 143.876 189.392 144.384L189.504 144.779C189.56 144.722 189.672 144.666 189.728 144.61C189.784 144.61 189.84 144.553 189.84 144.497C190.008 143.989 190.176 143.538 190.344 143.087C190.512 142.636 190.68 142.184 190.904 141.733C191.072 141.282 191.24 140.831 191.464 140.436C191.632 140.041 191.8 139.534 191.968 139.082C192.136 138.744 192.304 138.406 192.528 138.011C192.752 137.616 192.92 137.278 193.144 136.939C193.48 136.432 193.872 136.375 194.32 136.77C194.432 136.883 194.544 136.939 194.768 136.883C195.216 136.826 195.44 136.826 195.552 136.883C195.664 136.939 195.72 137.165 195.832 137.56C196.112 138.406 196.28 139.252 196.392 140.154C196.504 141.056 196.56 141.959 196.504 142.861C196.504 143.087 196.56 143.256 196.56 143.425C196.56 143.594 196.616 143.764 196.672 143.933C196.616 143.989 196.728 144.102 196.896 144.158C196.952 144.102 196.952 144.046 197.008 144.046C197.064 144.046 197.064 143.989 197.12 143.82C197.232 143.369 197.344 142.861 197.4 142.41C197.456 141.959 197.568 141.451 197.68 141C197.96 139.421 198.352 137.842 198.856 136.319C199.36 134.796 199.808 133.273 200.2 131.694C200.312 131.243 200.424 130.679 200.536 130.171C200.648 129.607 200.76 129.1 200.872 128.592C200.984 128.254 201.096 127.915 201.208 127.577C201.32 127.238 201.6 127.013 201.992 126.9C202.328 126.787 202.72 126.674 203.056 126.562C203.448 126.449 203.784 126.505 204.12 126.674C204.456 126.844 204.792 127.013 205.128 127.295C205.464 127.52 205.688 127.859 205.8 128.254C205.968 128.705 206.08 129.156 206.248 129.551C206.416 129.946 206.528 130.397 206.584 130.848C206.64 131.074 206.696 131.299 206.696 131.468C206.64 133.048 206.64 134.57 206.752 136.093C206.864 137.616 207.032 139.139 207.256 140.662C207.256 140.831 207.256 141 207.256 141.169C207.256 141.338 207.256 141.508 207.256 141.677C207.256 143.2 207.368 144.722 207.592 146.189C207.76 147.655 208.04 149.178 208.32 150.644C208.32 150.757 208.32 150.814 208.376 150.87C208.432 150.926 208.432 150.983 208.488 151.096L208.88 150.701C209.272 149.629 209.72 148.558 210.112 147.542C210.56 146.527 210.952 145.512 211.4 144.44C211.568 144.046 211.68 143.707 211.792 143.369C211.904 143.03 212.072 142.692 212.24 142.354C212.408 141.846 212.632 141.056 212.912 140.041C213.192 138.97 213.528 138.18 214.032 137.56C214.144 137.334 214.368 137.165 214.648 137.108ZM192.696 139.759L192.472 140.098L192.416 140.38L192.248 141L192.08 141.395V141.451V141.62H192.136L192.08 141.451V141.395L192.304 141.056L192.472 140.323L192.64 140.098L192.696 139.759ZM195.272 148.332L195.104 148.388V148.445C195.104 148.501 195.16 148.501 195.216 148.501L195.272 148.332ZM196.728 144.666L196.672 144.779L196.784 144.835L196.84 144.722L196.728 144.666Z" fill="white"/>
<path d="M243.488 127.238C243.656 127.182 243.768 127.351 243.712 127.69C243.656 128.084 243.544 128.479 243.432 128.987C243.32 129.494 243.096 130.115 242.76 130.961C242.424 131.694 242.144 132.371 241.864 133.104C241.584 133.837 241.36 134.57 241.248 135.36C241.136 135.98 240.968 136.657 240.688 137.278C240.408 137.898 240.128 138.575 239.792 139.252C239.456 140.041 239.064 140.831 238.672 141.62C238.28 142.41 238 143.312 237.888 144.215C237.776 144.835 237.44 145.286 236.824 145.512C236.208 145.738 235.648 145.625 235.2 145.174C234.808 144.779 234.416 144.328 234.024 143.933C233.688 143.482 233.296 143.03 232.904 142.579C232.568 142.241 232.344 141.846 232.232 141.395C232.12 140.944 232.064 140.436 232.008 139.985C231.728 138.236 231.504 136.488 231.28 134.74C231.056 132.991 230.944 131.186 230.888 129.438C230.832 128.479 230.776 127.52 230.664 126.562C230.552 125.603 230.496 124.644 230.44 123.742C230.44 123.629 230.44 123.516 230.384 123.46C230.328 123.403 230.272 123.29 230.272 123.234C230.048 123.403 229.936 123.572 229.88 123.685C229.544 124.588 229.264 125.49 229.096 126.392C228.928 127.295 228.76 128.254 228.648 129.156C228.592 129.382 228.592 129.607 228.592 129.776C228.592 130.002 228.48 130.115 228.2 130.284C228.144 130.34 228.144 130.51 228.088 130.735C228.2 131.581 228.2 132.371 227.976 133.16C227.808 133.95 227.64 134.74 227.472 135.586C227.416 135.755 227.36 135.924 227.36 136.093C227.36 136.262 227.304 136.432 227.248 136.544C227.08 137.278 226.912 138.011 226.744 138.688C226.576 139.421 226.464 140.098 226.296 140.831C226.24 141.056 226.24 141.282 226.296 141.508C226.296 141.733 226.296 141.959 226.296 142.184C226.352 142.466 226.352 142.861 226.296 143.425C226.24 143.707 226.128 143.933 225.904 143.989C225.68 144.046 225.512 143.989 225.288 143.82C224.952 143.538 224.616 143.425 224.336 143.425C224 143.425 223.776 143.312 223.608 143.03C223.44 142.748 223.384 142.523 223.328 142.241C223.104 141.056 222.936 139.872 222.88 138.744C222.768 137.672 222.712 136.601 222.656 135.586C222.6 134.57 222.488 133.499 222.432 132.427C222.432 132.314 222.432 132.202 222.376 132.145C222.32 132.089 222.264 131.976 222.264 131.92C222.208 131.976 222.096 132.032 222.04 132.089C221.984 132.089 221.928 132.202 221.928 132.314C221.48 133.273 221.144 134.288 220.864 135.304C220.584 136.319 220.304 137.39 220.08 138.462C219.968 138.97 219.856 139.421 219.744 139.928C219.632 140.436 219.52 140.887 219.408 141.451C219.352 141.846 219.352 142.241 219.408 142.692C219.464 143.2 219.52 143.764 219.464 144.271C219.464 144.779 219.576 145.343 219.8 145.85C219.968 146.245 219.912 146.584 219.632 146.978C219.296 147.373 218.96 147.542 218.512 147.542C217.672 147.542 216.944 147.26 216.328 146.64C215.768 146.132 215.208 145.568 214.704 145.061C214.592 145.004 214.48 144.892 214.48 144.722C214.48 144.553 214.424 144.44 214.368 144.328C213.976 141.169 213.584 138.011 213.248 134.909C212.912 131.807 212.688 128.648 212.576 125.49C212.576 124.982 212.576 124.475 212.632 123.967C212.632 123.46 212.744 122.952 212.856 122.501C213.136 121.824 213.584 121.373 214.2 121.204C214.648 121.034 215.04 121.034 215.432 121.147C215.768 121.26 216.16 121.373 216.44 121.542C216.72 121.711 216.888 121.937 217 122.106C217.112 122.332 217.168 122.557 217.28 122.783C217.504 123.403 217.616 124.024 217.672 124.644C217.728 125.264 217.728 125.885 217.728 126.505C217.728 127.408 217.784 128.254 217.896 129.043C218.008 129.889 218.064 130.735 218.12 131.581C218.176 132.032 218.176 132.54 218.176 133.048C218.176 133.555 218.232 134.006 218.232 134.514L218.344 134.909C218.4 134.852 218.512 134.796 218.568 134.74C218.624 134.74 218.68 134.683 218.68 134.627C218.848 134.119 219.016 133.668 219.184 133.217C219.352 132.766 219.52 132.314 219.744 131.863C219.912 131.412 220.08 130.961 220.304 130.566C220.472 130.171 220.64 129.664 220.808 129.212C220.976 128.874 221.144 128.536 221.368 128.141C221.592 127.746 221.76 127.408 221.984 127.069C222.32 126.562 222.712 126.505 223.16 126.9C223.272 127.013 223.384 127.069 223.608 127.013C224.056 126.956 224.28 126.956 224.392 127.013C224.504 127.069 224.56 127.295 224.672 127.69C224.952 128.536 225.12 129.382 225.232 130.284C225.344 131.186 225.4 132.089 225.344 132.991C225.344 133.217 225.4 133.386 225.4 133.555C225.4 133.724 225.456 133.894 225.512 134.063C225.456 134.119 225.568 134.232 225.736 134.288C225.792 134.232 225.792 134.176 225.848 134.176C225.904 134.176 225.904 134.119 225.96 133.95C226.072 133.499 226.184 132.991 226.24 132.54C226.296 132.089 226.408 131.581 226.52 131.13C226.8 129.551 227.192 127.972 227.696 126.449C228.2 124.926 228.648 123.403 229.04 121.824C229.152 121.373 229.264 120.809 229.376 120.301C229.488 119.737 229.6 119.23 229.712 118.722C229.824 118.384 229.936 118.045 230.048 117.707C230.16 117.368 230.44 117.143 230.832 117.03C231.168 116.917 231.56 116.804 231.896 116.692C232.288 116.579 232.624 116.635 232.96 116.804C233.296 116.974 233.632 117.143 233.968 117.425C234.304 117.65 234.528 117.989 234.64 118.384C234.808 118.835 234.92 119.286 235.088 119.681C235.256 120.076 235.368 120.527 235.424 120.978C235.48 121.204 235.536 121.429 235.536 121.598C235.48 123.178 235.48 124.7 235.592 126.223C235.704 127.746 235.872 129.269 236.096 130.792C236.096 130.961 236.096 131.13 236.096 131.299C236.096 131.468 236.096 131.638 236.096 131.807C236.096 133.33 236.208 134.852 236.432 136.319C236.6 137.785 236.88 139.308 237.16 140.774C237.16 140.887 237.16 140.944 237.216 141C237.272 141.056 237.272 141.113 237.328 141.226L237.72 140.831C238.112 139.759 238.56 138.688 238.952 137.672C239.4 136.657 239.792 135.642 240.24 134.57C240.408 134.176 240.52 133.837 240.632 133.499C240.744 133.16 240.912 132.822 241.08 132.484C241.248 131.976 241.472 131.186 241.752 130.171C242.032 129.1 242.368 128.31 242.872 127.69C243.04 127.464 243.264 127.295 243.488 127.238ZM221.592 129.889L221.368 130.228L221.312 130.51L221.144 131.13L220.976 131.525V131.581V131.75H221.032L220.976 131.581V131.525L221.2 131.186L221.368 130.453L221.536 130.228L221.592 129.889ZM224.112 138.462L223.944 138.518V138.575C223.944 138.631 224 138.631 224.056 138.631L224.112 138.462ZM225.624 134.852L225.568 134.965L225.68 135.022L225.736 134.909L225.624 134.852Z" fill="white"/>
</g>
<defs>
<clipPath id="clip0_4_21">
<rect width="280" height="282" fill="white"/>
</clipPath>
</defs>
</svg>
